<svg height="512pt" viewBox="0 -11 512.001 512" width="512pt" xmlns="http://www.w3.org/2000/svg"><path d="m504.5 235.800781c-.003906-37.835937-.011719-66.695312-.042969-72.261719-.191406-34.652343-111.414062-62.132812-248.457031-61.410156-137.042969-.722656-248.265625 26.757813-248.457031 61.410156-.027344 5.566407-.039063 34.425782-.042969 72.261719zm0 0" fill="#00e5b9"/><path d="m421.058594 482.070312h-330.457032v-50.011718c0-19.234375 15.59375-34.828125 34.828126-34.828125h260.800781c19.234375 0 34.828125 15.59375 34.828125 34.828125zm0 0" fill="#fc3e4b"/><path d="m421.0625 432.058594v50.007812h-22.773438v-50.007812c0-19.234375-15.59375-34.832032-34.828124-34.832032h22.769531c19.234375 0 34.832031 15.597657 34.832031 34.832032zm0 0" fill="#f01014"/><path d="m329.84375 415.300781c0 22.265625-33.136719 55.304688-74.015625 55.304688-40.875 0-74.011719-33.039063-74.011719-55.304688s33.136719-25.328125 74.011719-25.328125c40.878906 0 74.015625 3.0625 74.015625 25.328125zm0 0" fill="#e3f4ff"/><path d="m255.828125 426.105469c-17.484375 0-31.664063-14.179688-31.664063-31.664063v-40.601562h63.332032v40.601562c0 17.484375-14.179688 31.664063-31.667969 31.664063zm0 0" fill="#fecbaa"/><path d="m333.789062 240.082031h-156.261718c-34.558594 0-62.574219-28.011719-62.574219-62.570312v-23.40625c0-61.648438 49.976563-111.621094 111.621094-111.621094h58.164062c61.648438 0 111.625 49.972656 111.625 111.621094v23.40625c-.003906 34.558593-28.015625 62.570312-62.574219 62.570312zm0 0" fill="#fd9e28"/><path d="m403.097656 246.523438c0 18.273437-14.8125 33.085937-33.085937 33.085937-18.269531 0-33.082031-14.8125-33.082031-33.085937 0-18.269532 14.8125-33.082032 33.082031-33.082032 18.273437 0 33.085937 14.8125 33.085937 33.082032zm0 0" fill="#fecbaa"/><path d="m174.386719 246.523438c0 18.273437-14.8125 33.085937-33.085938 33.085937-18.269531 0-33.082031-14.8125-33.082031-33.085937 0-18.269532 14.8125-33.082032 33.082031-33.082032 18.273438 0 33.085938 14.8125 33.085938 33.082032zm0 0" fill="#fecbaa"/><path d="m153.632812 198.691406 5.902344 104.324219c2.167969 38.242187 33.808594 68.148437 72.113282 68.148437h48.015624c38.304688 0 69.949219-29.90625 72.113282-68.148437l5.90625-104.324219zm0 0" fill="#fedfc5"/><path d="m261.648438 290.816406h-11.980469c-5.804688 0-10.261719-5.148437-9.425781-10.890625l5.988281-41.34375c.679687-4.683593 4.695312-8.15625 9.425781-8.15625 4.734375 0 8.75 3.472657 9.429688 8.15625l5.988281 41.34375c.832031 5.746094-3.621094 10.890625-9.425781 10.890625zm0 0" fill="#fd8289"/><path d="m272.851562 96.996094v-51.5h-34.042968v51.5c0 20.550781-16.65625 37.210937-37.207032 37.210937v21.921875h108.457032v-21.921875c-20.546875 0-37.207032-16.660156-37.207032-37.210937zm0 0" fill="#89b4c9"/><path d="m382.257812 257.585938h-252.855468c-19.082032 0-34.554688-15.472657-34.554688-34.558594v-57.925782c0-19.085937 15.472656-34.554687 34.554688-34.554687h252.855468c19.085938 0 34.554688 15.46875 34.554688 34.554687v57.925782c0 19.085937-15.46875 34.558594-34.554688 34.558594zm0 0" fill="#e3f4ff"/><path d="m416.816406 165.101562v57.929688c0 19.085938-15.476562 34.550781-34.5625 34.550781h-19.414062c19.085937 0 34.5625-15.464843 34.5625-34.550781v-57.929688c0-19.085937-15.476563-34.550781-34.5625-34.550781h19.414062c19.085938-.003906 34.5625 15.464844 34.5625 34.550781zm0 0" fill="#bddff4"/><path d="m304.148438 48.957031h-96.636719c-5.515625 0-9.992188-4.472656-9.992188-9.992187v-.703125c0-9.867188 8-17.863281 17.867188-17.863281h80.886719c9.867187 0 17.867187 7.996093 17.867187 17.863281v.703125c0 5.519531-4.476563 9.992187-9.992187 9.992187zm0 0" fill="#e3f4ff"/><path d="m119.875 225.804688v101.335937c0 6.242187-5.664062 10.980469-11.800781 9.828125-58.492188-10.960938-97.253907-28.277344-100.335938-47.90625-.121093-.839844-.199219-1.679688-.199219-2.527344v-121.660156c0 17.84375 29.464844 33.941406 76.765626 45.382812 8.539062 2.058594 17.667968 3.972657 27.3125 5.710938 4.773437.859375 8.257812 4.988281 8.257812 9.835938zm0 0" fill="#a6ffee"/><path d="m504.5 164.875v121.660156c0 1.308594-.160156 2.597656-.46875 3.886719-4.605469 19.058594-42.878906 35.824219-100 46.542969-6.164062 1.15625-11.867188-3.542969-11.867188-9.8125v-101.335938c0-4.851562 3.484376-8.980468 8.253907-9.839844 8.199219-1.480468 16.027343-3.078124 23.4375-4.800781 49.570312-11.480469 80.644531-27.976562 80.644531-46.300781zm0 0" fill="#a6ffee"/><path d="m309.664062 322.347656c0 9.230469-7.480468 16.710938-16.710937 16.710938s-16.710937-7.480469-16.710937-16.710938c0-9.226562 7.480468-16.707031 16.710937-16.707031s16.710937 7.480469 16.710937 16.707031zm0 0" fill="#fd6069"/><path d="m357.578125 221.820312h-203.496094c-8.058593 0-14.59375-6.535156-14.59375-14.59375 0-8.0625 6.535157-14.597656 14.59375-14.597656h203.496094c8.058594 0 14.59375 6.535156 14.59375 14.597656 0 8.058594-6.535156 14.59375-14.59375 14.59375zm0 0" fill="#89b4c9"/><path d="m457.578125 392.253906c.070313.003906.144531.003906.214844.003906 4.046875 0 7.378906-3.21875 7.492187-7.289062l.011719-.394531c.117187-4.144531-3.144531-7.59375-7.285156-7.710938-4.152344-.152343-7.589844 3.144531-7.707031 7.285157l-.011719.398437c-.117188 4.140625 3.144531 7.589844 7.285156 7.707031zm0 0"/><path d="m458.085938 402.226562c-4.140626-.148437-7.589844 3.144532-7.707032 7.285157l-.011718.398437c-.117188 4.140625 3.144531 7.589844 7.285156 7.707032.070312.003906.144531.003906.214844.003906 4.042968 0 7.378906-3.21875 7.492187-7.289063l.011719-.394531c.117187-4.144531-3.144532-7.59375-7.285156-7.710938zm0 0"/><path d="m470.914062 389.710938-.398437-.011719c-4.101563-.132813-7.585937 3.15625-7.699219 7.296875-.109375 4.140625 3.15625 7.585937 7.296875 7.699218l.398438.011719h.207031c4.046875 0 7.382812-3.222656 7.492188-7.296875.109374-4.140625-3.15625-7.585937-7.296876-7.699218zm0 0"/><path d="m452.847656 397.484375c.113282-4.140625-3.15625-7.585937-7.292968-7.699219l-.398438-.011718c-4.140625-.125-7.589844 3.152343-7.699219 7.296874-.113281 4.140626 3.152344 7.585938 7.292969 7.699219l.398438.011719h.207031c4.046875 0 7.382812-3.222656 7.492187-7.296875zm0 0"/><path d="m391.523438 15.394531c.070312.003907.144531.003907.214843.003907 4.042969 0 7.378907-3.222657 7.492188-7.289063l.011719-.398437c.117187-4.140626-3.144532-7.589844-7.285157-7.70703175-4.144531-.11718725-7.589843 3.14453175-7.707031 7.28515575l-.011719.398438c-.117187 4.136719 3.144531 7.589844 7.285157 7.707031zm0 0"/><path d="m392.03125 25.367188c-4.164062-.117188-7.589844 3.144531-7.707031 7.285156l-.011719.394531c-.117188 4.140625 3.144531 7.59375 7.285156 7.710937h.214844c4.046875 0 7.378906-3.21875 7.496094-7.285156l.007812-.398437c.117188-4.140625-3.144531-7.589844-7.285156-7.707031zm0 0"/><path d="m396.765625 20.132812c-.113281 4.144532 3.152344 7.589844 7.292969 7.703126l.394531.007812c.070313.003906.140625.003906.207031.003906 4.050782 0 7.386719-3.226562 7.496094-7.296875.109375-4.140625-3.15625-7.589843-7.296875-7.699219l-.394531-.011718c-4.152344-.121094-7.589844 3.152344-7.699219 7.292968zm0 0"/><path d="m378.675781 27.910156.398438.011719h.226562c4.039063 0 7.371094-3.210937 7.492188-7.277344.121093-4.140625-3.136719-7.597656-7.277344-7.71875l-.398437-.011719c-4.136719-.101562-7.59375 3.136719-7.714844 7.277344-.125 4.140625 3.132812 7.59375 7.273437 7.71875zm0 0"/><path d="m94.5625 50.363281c.070312 0 .140625.003907.214844.003907 4.042968 0 7.378906-3.222657 7.492187-7.289063l.011719-.398437c.117188-4.140626-3.144531-7.589844-7.285156-7.707032-4.15625-.117187-7.59375 3.144532-7.710938 7.285156l-.007812.394532c-.117188 4.140625 3.144531 7.59375 7.285156 7.710937zm0 0"/><path d="m95.070312 60.335938c-4.148437-.113282-7.59375 3.144531-7.710937 7.285156l-.007813.394531c-.117187 4.140625 3.144532 7.59375 7.285157 7.710937.070312 0 .140625.003907.214843.003907 4.042969 0 7.378907-3.222657 7.492188-7.289063l.011719-.398437c.117187-4.140625-3.144531-7.589844-7.285157-7.707031zm0 0"/><path d="m99.800781 55.085938c-.121093 4.140624 3.136719 7.59375 7.277344 7.714843l.398437.015625h.222657c4.039062 0 7.375-3.210937 7.492187-7.277344.125-4.140624-3.132812-7.597656-7.273437-7.71875l-.398438-.011718c-4.140625-.113282-7.597656 3.136718-7.71875 7.277344zm0 0"/><path d="m81.714844 62.875.394531.011719c.078125.003906.152344.003906.226563.003906 4.039062 0 7.375-3.214844 7.492187-7.277344.121094-4.140625-3.132813-7.597656-7.273437-7.71875l-.398438-.011719c-4.164062-.105468-7.59375 3.136719-7.71875 7.277344-.121094 4.136719 3.136719 7.59375 7.277344 7.714844zm0 0"/><path d="m76.640625 241.828125c5.375 1.292969 11 2.542969 16.722656 3.710937.507813.101563 1.011719.152344 1.507813.152344 3.492187 0 6.617187-2.449218 7.34375-6.003906.824218-4.058594-1.792969-8.019531-5.851563-8.847656-5.554687-1.132813-11.003906-2.34375-16.207031-3.59375-4.027344-.972656-8.078125 1.503906-9.046875 5.53125-.972656 4.03125 1.503906 8.082031 5.53125 9.050781zm0 0"/><path d="m76.640625 311.109375c5.375 1.292969 11 2.542969 16.722656 3.710937.507813.101563 1.011719.152344 1.507813.152344 3.492187 0 6.617187-2.449218 7.34375-6.003906.824218-4.058594-1.792969-8.019531-5.851563-8.847656-5.554687-1.132813-11.003906-2.34375-16.207031-3.59375-4.027344-.972656-8.078125 1.503906-9.046875 5.53125-.972656 4.03125 1.503906 8.082031 5.53125 9.050781zm0 0"/><path d="m76.640625 289.933594c5.375 1.296875 11 2.542968 16.722656 3.710937.507813.105469 1.011719.152344 1.507813.152344 3.492187 0 6.617187-2.449219 7.34375-6.003906.824218-4.058594-1.792969-8.019531-5.851563-8.847657-5.554687-1.132812-11.003906-2.339843-16.207031-3.59375-4.027344-.972656-8.078125 1.507813-9.046875 5.53125-.972656 4.03125 1.503906 8.082032 5.53125 9.050782zm0 0"/><path d="m421.8125 237.203125c.804688 3.464844 3.886719 5.808594 7.300781 5.808594.558594 0 1.128907-.0625 1.699219-.195313 19.832031-4.59375 37.078125-9.980468 51.261719-16.007812 3.8125-1.621094 5.589843-6.023438 3.96875-9.835938-1.621094-3.8125-6.023438-5.589844-9.835938-3.96875-13.382812 5.6875-29.792969 10.800782-48.777343 15.199219-4.039063.933594-6.550782 4.964844-5.617188 9zm0 0"/><path d="m476.207031 236.304688c-4.285156 1.824218-8.9375 3.605468-13.820312 5.304687-3.914063 1.355469-5.984375 5.628906-4.625 9.542969 1.078125 3.097656 3.980469 5.042968 7.085937 5.042968.8125 0 1.644532-.132812 2.457032-.417968 5.203124-1.808594 10.171874-3.710938 14.769531-5.667969 3.8125-1.617187 5.589843-6.023437 3.96875-9.835937-1.617188-3.8125-6.023438-5.589844-9.835938-3.96875zm0 0"/><path d="m292.9375 298.144531c-13.351562 0-24.210938 10.859375-24.210938 24.210938 0 13.351562 10.859376 24.210937 24.210938 24.210937 13.347656 0 24.210938-10.859375 24.210938-24.210937 0-13.351563-10.863282-24.210938-24.210938-24.210938zm0 33.421875c-5.078125 0-9.210938-4.132812-9.210938-9.210937s4.132813-9.210938 9.210938-9.210938 9.210938 4.132813 9.210938 9.210938-4.132813 9.210937-9.210938 9.210937zm0 0"/><path d="m357.566406 185.128906h-203.507812c-12.1875 0-22.097656 9.910156-22.097656 22.09375s9.910156 22.097656 22.097656 22.097656h203.507812c12.183594 0 22.09375-9.914062 22.09375-22.097656s-9.910156-22.09375-22.09375-22.09375zm0 29.191406h-203.507812c-3.914063 0-7.097656-3.183593-7.097656-7.097656 0-3.914062 3.183593-7.097656 7.097656-7.097656h203.507812c3.914063 0 7.09375 3.183594 7.09375 7.097656 0 3.914063-3.179687 7.097656-7.09375 7.097656zm0 0"/><path d="m511.957031 163.492188c-.078125-14.082032-12.203125-26.605469-36.035156-37.226563-20.164063-8.984375-48.84375-16.597656-83.011719-22.066406-5.445312-11.785157-12.804687-22.679688-21.867187-32.203125-13.71875-14.417969-30.746094-25.121094-49.515625-31.214844.0625-.601562.09375-1.210938.09375-1.828125v-.707031c0-13.984375-11.378906-25.367188-25.363282-25.367188h-80.894531c-13.984375 0-25.367187 11.382813-25.367187 25.367188v.707031c0 .578125.03125 1.152344.089844 1.71875-18.886719 6.070313-36.015626 16.796875-49.808594 31.277344-9.113282 9.566406-16.503906 20.515625-21.960938 32.363281-44.269531 7.136719-118.117187 24.28125-118.31249975 59.179688 0 .230468-.00390625 123.042968-.00390625 123.042968 0 1.117188.0898438 2.292969.273438 3.589844.007812.035156.011718.070312.015624.105469 1.632813 10.382812 10.0625 19.945312 25.058594 28.421875 3.601563 2.039062 8.179688.769531 10.21875-2.835938 2.039063-3.609375.769532-8.183594-2.839844-10.222656-10.46875-5.917969-16.71875-12.183594-17.609374-17.644531-.078126-.5625-.117188-1.027344-.117188-1.414063v-96.414062c16.355469 12.722656 43.414062 21.59375 67.515625 27.425781 8.726563 2.101563 18.058594 4.054687 27.742187 5.796875 1.210938.21875 2.085938 1.253906 2.085938 2.460938v101.34375c0 1.023437-.566406 1.648437-.90625 1.929687-.332031.273437-1.03125.710937-2.011719.527344-16.203125-3.035157-30.890625-6.574219-43.652343-10.515625-3.960938-1.222656-8.15625.996094-9.378907 4.953125-1.21875 3.960937.996094 8.160156 4.953125 9.378906 13.304688 4.109375 28.550782 7.785156 45.316406 10.925781 10.601563 1.984375 20.679688-6.4375 20.679688-17.199218v-42.515626c4.429688 1.621094 9.128906 2.480469 13.929688 2.480469 3.289062 0 6.574218-.414062 9.757812-1.199219l.992188 17.527344c2.097656 37.074219 29.363281 67.082032 64.621093 73.808594v7.015625c-9.464843 1.164063-17.105469 2.976563-23.15625 5.472656h-68.085937c-23.339844 0-42.332032 18.992188-42.332032 42.335938v50.011719c0 4.144531 3.359376 7.5 7.5 7.5 4.140626 0 7.5-3.355469 7.5-7.5v-50.011719c0-15.074219 12.261719-27.335938 27.332032-27.335938h51.074218c-1.664062 3.722657-2.183593 7.417969-2.183593 10.574219 0 13.566406 9.125 29.191406 24.410156 41.792969 16.4375 13.550781 36.71875 21.015625 57.109375 21.015625s40.671875-7.464844 57.109375-21.015625c15.285156-12.601563 24.410156-28.226563 24.410156-41.792969 0-3.15625-.519531-6.851562-2.183593-10.574219h51.074218c15.070313 0 27.332032 12.261719 27.332032 27.335938v50.011719c0 4.144531 3.355468 7.5 7.5 7.5 4.140624 0 7.5-3.355469 7.5-7.5v-50.011719c0-23.34375-18.992188-42.335938-42.332032-42.335938h-68.066406c-6.066406-2.523437-13.601562-4.308593-23.175781-5.476562v-7.070313c35.089843-6.859375 62.183593-36.792968 64.273437-73.75l.992188-17.523437c3.183594.785156 6.460937 1.195312 9.757812 1.195312 5.027344 0 10.003906-.953125 14.652344-2.75v42.792969c0 10.796875 10.136719 19.183594 20.75 17.1875 80.789062-15.15625 102.191406-36.730469 105.917969-52.164062.449219-1.871094.675781-3.769532.675781-5.644532 0 0-.039062-122.890625-.042969-123.042968zm-151.78125-81.15625c11.066407 11.628906 19.238281 25.582031 23.964844 40.746093-.628906-.027343-1.257813-.046875-1.894531-.046875h-86.476563c-9.53125-5.234375-15.433593-15.15625-15.433593-26.050781v-40.539063h23.796874c3.300782 0 6.382813-.9375 9.023438-2.535156 17.878906 5.0625 34.117188 14.867188 47.019531 28.425782zm-113.886719-25.890626h19.046876v40.539063c0 9.546875 3.019531 18.597656 8.363281 26.050781h-35.777344c5.34375-7.453125 8.367187-16.503906 8.367187-26.050781zm-41.292968-18.199218c0-5.714844 4.652344-10.367188 10.367187-10.367188h80.894531c5.714844 0 10.367188 4.652344 10.367188 10.367188v.707031c0 1.371094-1.117188 2.492187-2.492188 2.492187h-96.644531c-1.371093 0-2.492187-1.121093-2.492187-2.492187zm-173.09375 145.226562c-10.898438-6.308594-16.902344-12.914062-16.902344-18.601562 0-.21875-.015625-.433594-.03125-.644532.019531-.214843.035156-.433593.035156-.652343.074219-13.125 30.253906-31.199219 97.21875-43.023438-.679687 2.320313-1.277344 4.660157-1.816406 7.023438-13.683594 6.949219-23.089844 21.152343-23.089844 37.519531v38.171875c-.425781-.097656-.859375-.199219-1.28125-.300781-22.984375-5.558594-41.703125-12.300782-54.132812-19.492188zm109.371094 88.640625c-4.980469 0-9.78125-1.4375-13.929688-4.136719v-2.945312c.675781.035156 1.355469.054688 2.03125.054688h20.476562l.308594 5.445312c-2.824218 1.046875-5.804687 1.582031-8.886718 1.582031zm114.539062 191.007813c-36.078125 0-66.519531-29.363282-66.519531-47.808594 0-3.453125.007812-12.246094 27.667969-15.960938 2.421874 19.289063 18.914062 34.265626 38.851562 34.265626 19.933594 0 36.429688-14.976563 38.847656-34.265626 27.660156 3.714844 27.671875 12.507813 27.671875 15.960938-.003906 18.445312-30.445312 47.808594-66.519531 47.808594zm24.167969-68.671875c0 13.328125-10.84375 24.167969-24.167969 24.167969-13.328125 0-24.167969-10.839844-24.167969-24.167969v-15.777344h48.003907c.109374 0 .21875-.007813.332031-.007813zm-.332031-30.777344h-48.019532c-34.300781 0-62.691406-26.828125-64.628906-61.078125l-2.125-37.507812h69.917969l-1.996094 13.769531c-.707031 4.890625.742187 9.84375 3.976563 13.582031 3.238281 3.738281 7.929687 5.882812 12.875 5.882812h11.980468c4.945313 0 9.636719-2.144531 12.875-5.882812 3.234375-3.738281 4.683594-8.691406 3.976563-13.585938l-1.996094-13.765624h69.917969l-2.125 37.507812c-1.9375 34.25-30.328125 61.078125-64.628906 61.078125zm-18.320313-98.585937 2.308594 15.917968c.109375.757813-.199219 1.296875-.476563 1.617188-.273437.316406-.765625.699218-1.527344.699218h-11.984374c-.765626 0-1.253907-.382812-1.53125-.699218-.277344-.320313-.582032-.859375-.472657-1.617188l2.304688-15.917968zm108.675781 7.027343c-3.042968 0-6.058594-.554687-8.886718-1.597656l.308593-5.429687h20.820313c.804687 0 1.605468-.03125 2.410156-.078126v2.476563c-4.304688 3.019531-9.332031 4.628906-14.652344 4.628906zm14.652344-46.300781v24.164062c-.800781.070313-1.605469.109376-2.410156.109376h-252.871094c-.679688 0-1.355469-.035157-2.03125-.082032v-24.199218c0-8.472657-6.066406-15.714844-14.425781-17.21875-3.589844-.648438-7.128907-1.324219-10.601563-2.027344v-41.460938c0-14.921875 12.136719-27.0625 27.058594-27.0625h32.246094c4.140625 0 7.5-3.355468 7.5-7.5 0-4.144531-3.359375-7.5-7.5-7.5h-32.246094c-.753906 0-1.5.023438-2.246094.0625 4.734375-15.191406 12.921875-29.160156 24.011719-40.804687 12.953125-13.597657 29.261719-23.410157 47.21875-28.449219 2.660156 1.636719 5.78125 2.601562 9.128906 2.601562h23.796875v40.539063c0 10.894531-5.902344 20.816406-15.433594 26.050781h-19.734374c-4.144532 0-7.5 3.355469-7.5 7.5 0 4.144532 3.355468 7.5 7.5 7.5h186.128906c14.917968 0 27.058594 12.140625 27.058594 27.0625v41.539063c-3.339844.671875-6.746094 1.328125-10.226563 1.957031-8.355469 1.503906-14.421875 8.746094-14.421875 17.21875zm83.238281-27.929688c1.75 3.753907 6.214844 5.371094 9.96875 3.621094 7.660157-3.574218 14.042969-7.351562 19.136719-11.316406v96.351562c0 .703126-.085938 1.398438-.257812 2.125-.953126 3.9375-5.613282 11.945313-26.140626 21.34375-16.5625 7.585938-40.0625 14.359376-67.957031 19.59375-1.023437.191407-1.75-.253906-2.09375-.535156-.332031-.277344-.894531-.894531-.894531-1.90625v-101.347656c0-1.207031.878906-2.238281 2.085938-2.457031 8.335937-1.503907 16.34375-3.144531 23.804687-4.875 6.226563-1.441407 12.253906-2.984375 17.898437-4.582031 3.988282-1.128907 6.304688-5.273438 5.175782-9.261719-1.128906-3.984375-5.273438-6.300781-9.257813-5.171875-4.765625 1.347656-9.828125 2.652344-15.054687 3.894531v-38.261719c0-16.527344-9.585938-30.851562-23.484375-37.722656-.535157-2.335938-1.132813-4.652344-1.804688-6.941406 29.125 5.113281 53.460938 11.808594 70.796875 19.535156 17.207032 7.667969 27.101563 16.273438 27.140625 23.605469.003907.300781.027344.597656.0625.890625-.007812.132812-.019531.269531-.019531.40625 0 7.082031-9.289062 15.480468-25.484375 23.042968-3.753906 1.753907-5.375 6.214844-3.621094 9.96875zm0 0"/></svg>