<?xml version="1.0" encoding="UTF-8"?>
<svg version="1.1" viewBox="0 0 498.14 498.14" xmlns="http://www.w3.org/2000/svg">
 <g transform="translate(-112.36 -257.58)">
  <g transform="matrix(2.4783 0 0 2.4783 361.43 506.65)" fill="none" stroke="#fff">
   <path transform="rotate(2.0024)" d="m6.0421 0a6.0421 100 0 1 1 -12.084 0 6.0421 100 0 1 1 12.084 0z"/>
   <path transform="matrix(.94756 .31957 -.31957 .94756 0 0)" d="m48.429 0a48.429 100 0 1 1 -96.858 0 48.429 100 0 1 1 96.858 0z"/>
   <path transform="matrix(.69827 .71583 -.71583 .69827 0 0)" d="m77.839 0a77.839 100 0 1 1 -155.68 0 77.839 100 0 1 1 155.68 0z"/>
   <path transform="rotate(-82.038)" d="m86.393 0a86.393 100 0 1 1 -172.79 0 86.393 100 0 1 1 172.79 0z"/>
   <path transform="rotate(-36.549)" d="m71.798 0a71.798 100 0 1 1 -143.6 0 71.798 100 0 1 1 143.6 0z"/>
   <path transform="rotate(-13.705)" d="m37.965 0a37.965 100 0 1 1 -75.93 0 37.965 100 0 1 1 75.93 0z"/>
   <path d="m23.932 84.086a23.932 11.967 0 1 1 -47.863 0 23.932 11.967 0 1 1 47.863 0z"/>
   <path d="m46.472 76.683a46.472 23.237 0 1 1 -92.945 0 46.472 23.237 0 1 1 92.945 0z"/>
   <path d="m66.312 64.823a66.312 33.157 0 1 1 -132.62 0 66.312 33.157 0 1 1 132.62 0z"/>
   <path d="m82.298 49.196a82.298 41.15 0 1 1 -164.6 0 82.298 41.15 0 1 1 164.6 0z"/>
   <path d="m93.502 30.71a93.502 46.752 0 1 1 -187 0 93.502 46.752 0 1 1 187 0z"/>
   <path d="m99.271 10.439a99.271 49.636 0 1 1 -198.54 0 99.271 49.636 0 1 1 198.54 0z"/>
   <path d="m99.271-10.439a99.271 49.636 0 1 1 -198.54 0 99.271 49.636 0 1 1 198.54 0z"/>
   <path d="m93.502-30.71a93.502 46.752 0 1 1 -187 0 93.502 46.752 0 1 1 187 0z"/>
   <path d="m82.298-49.196a82.298 41.15 0 1 1 -164.6 0 82.298 41.15 0 1 1 164.6 0z"/>
   <path d="m66.312-64.823a66.312 33.157 0 1 1 -132.62 0 66.312 33.157 0 1 1 132.62 0z"/>
   <path d="m46.472-76.683a46.472 23.237 0 1 1 -92.945 0 46.472 23.237 0 1 1 92.945 0z"/>
   <path d="m23.932-84.086a23.932 11.967 0 1 1 -47.863 0 23.932 11.967 0 1 1 47.863 0z"/>
   <path d="m100 0a100 100 0 1 1 -200 0 100 100 0 1 1 200 0z"/>
  </g>
 </g>
</svg>
