<?xml version="1.0" encoding="iso-8859-1"?>
<!-- Generator: Adobe Illustrator 19.0.0, SVG Export Plug-In . SVG Version: 6.00 Build 0)  -->
<svg version="1.1" id="Capa_1" xmlns="http://www.w3.org/2000/svg" xmlns:xlink="http://www.w3.org/1999/xlink" x="0px" y="0px"
	 viewBox="0 0 512 512" style="enable-background:new 0 0 512 512;" xml:space="preserve">
<path style="fill:#455A64;" d="M368,48.992H144L22.08,88.8C8.896,93.088,0,105.376,0,119.232V480c0,17.664,14.336,32,32,32h448
	c17.664,0,32-14.336,32-32V119.232c0-13.856-8.896-26.112-22.08-30.432L368,48.992z"/>
<polygon style="fill:#CFD8DC;" points="144,48.992 256,384 368,48.992 "/>
<polygon style="fill:#EF5350;" points="224,80 288,80 256,160 "/>
<polygon style="fill:#B0BEC5;" points="160,0 352,0 256,80 "/>
<polygon style="fill:#EF5350;" points="192,288 240,112 272,112 320,288 256,384 "/>
<circle style="fill:#37474F;" cx="256" cy="464" r="16"/>
<g>
	<path style="fill:#546E7A;" d="M271.104,378.72l-112-320c-1.92-5.472-6.688-9.504-12.416-10.464c-5.632-0.96-11.52,1.248-15.2,5.76
		l-64,80c-3.488,4.352-4.416,10.208-2.528,15.456c1.92,5.248,6.432,9.12,11.904,10.208l50.688,10.144l-26.88,26.848
		c-5.792,5.824-6.272,15.104-1.056,21.44l144,176C246.752,397.984,251.328,400,256,400c2.656,0,5.344-0.672,7.808-2.016
		C270.592,394.144,273.664,386.016,271.104,378.72z"/>
	<path style="fill:#546E7A;" d="M240.896,378.72l112-320c1.952-5.504,6.688-9.504,12.416-10.496c5.632-0.96,11.52,1.248,15.2,5.76
		l64,80c3.488,4.384,4.448,10.24,2.528,15.488c-1.92,5.248-6.432,9.12-11.904,10.208l-50.688,10.144l26.848,26.848
		c5.824,5.824,6.272,15.072,1.088,21.44l-144,176C265.248,397.984,260.672,400,256,400c-2.656,0-5.344-0.672-7.808-2.016
		C241.408,394.144,238.336,386.016,240.896,378.72z"/>
</g>
<g>
	<polygon style="fill:#ECEFF1;" points="352,0 368,48.992 320,144 256,80 	"/>
	<polygon style="fill:#ECEFF1;" points="160,0 144,48.992 192,144 256,80 	"/>
</g>
<g>
</g>
<g>
</g>
<g>
</g>
<g>
</g>
<g>
</g>
<g>
</g>
<g>
</g>
<g>
</g>
<g>
</g>
<g>
</g>
<g>
</g>
<g>
</g>
<g>
</g>
<g>
</g>
<g>
</g>
</svg>
